<?xml version="1.0" encoding="utf-8"?>
<!-- Generator: Adobe Illustrator 23.0.5, SVG Export Plug-In . SVG Version: 6.00 Build 0)  -->
<svg version="1.1" xmlns="http://www.w3.org/2000/svg" xmlns:xlink="http://www.w3.org/1999/xlink" x="0px" y="0px"
	 viewBox="0 0 1200 800" style="enable-background:new 0 0 1200 800;" xml:space="preserve">
<style type="text/css">
	.st0{display:none;}
	.st1{display:inline;}
	.st2{fill:#CFDFFF;}
	.st3{fill:#120D26;}
</style>
<g id="Logotipo" class="st0">
	<g class="st1">
		<path class="st2" d="M958.31,326.23v122.76l6.67,11.03l8.13,2.03l15.67-2.9l3.62-0.99l17.52-10.86l87.21-44.36l7.35-12
			c0,0-1.35-10.64-1.35-11.22c0-0.58-10.64-7.93-10.64-7.93l-108.15-60.56l-17.61,0.97l-7.16,8.71L958.31,326.23z"/>
		<g>
			<path class="st3" d="M1039.97,379.66v13.49h-22.11v23.98h-14.99v-23.98h-22.11v-13.49h22.11v-23.98h14.99v23.98H1039.97z"/>
			<g>
				<g>
					<path class="st3" d="M1099.69,367.59l-110.21-60.28c-7.97-4.36-17.61-4.54-25.79-0.48c-8.17,4.05-13.05,11.43-13.05,19.74
						v120.02c0,12.56,11.41,22.84,25.43,22.91c0.04,0,0.08,0,0.11,0c4.38,0,8.95-1.22,13.21-3.53c3.43-1.86,4.52-5.83,2.42-8.87
						c-2.09-3.04-6.57-4.01-10-2.15c-1.99,1.08-3.94,1.64-5.67,1.64c-5.29-0.03-10.95-4.05-10.95-9.99V326.56
						c0-3.56,2.09-6.73,5.6-8.47c3.51-1.74,7.64-1.66,11.06,0.21l110.22,60.28c3.31,1.81,5.21,4.83,5.2,8.28
						c-0.01,3.45-1.92,6.46-5.25,8.27l-79.69,43.29c-3.43,1.86-4.5,5.84-2.41,8.88c2.1,3.04,6.58,4,10.01,2.14l79.68-43.29
						c7.63-4.13,12.19-11.33,12.21-19.26C1111.83,378.96,1107.3,371.75,1099.69,367.59z"/>
				</g>
			</g>
		</g>
	</g>
	<g class="st1">
		<path class="st3" d="M147.8,450.43c-9.21,0-17.78-1.75-25.47-5.2c-7.66-3.43-14.32-8.11-19.8-13.91
			c-5.47-5.78-9.79-12.64-12.85-20.38c-3.04-7.73-4.59-16-4.59-24.58c0-8.58,1.5-16.8,4.47-24.45c2.97-7.66,7.26-14.45,12.75-20.17
			c5.48-5.71,12.1-10.32,19.69-13.68c7.6-3.37,16.21-5.08,25.57-5.08c12.18,0,22.86,2.75,31.74,8.17
			c8.88,5.42,15.7,12.8,20.26,21.93l1.11,2.22l-23.63,7.42l-0.83-1.54c-2.84-5.24-6.85-9.37-11.94-12.26
			c-5.12-2.91-10.9-4.39-17.17-4.39c-5.13,0-10.05,1.05-14.61,3.11c-4.56,2.07-8.54,4.99-11.81,8.7c-3.31,3.74-5.97,8.2-7.92,13.25
			c-1.95,5.05-2.93,10.69-2.93,16.77c0,5.94,1.02,11.58,3.04,16.77c2.03,5.21,4.77,9.78,8.15,13.6c3.36,3.79,7.34,6.8,11.85,8.94
			c4.47,2.13,9.34,3.21,14.46,3.21c3.29,0,6.58-0.47,9.77-1.4c3.23-0.93,6.2-2.2,8.84-3.77c2.63-1.56,4.97-3.4,6.96-5.46
			c1.9-1.97,3.28-4.13,4.08-6.41l0.67-1.91l23.77,7.19l-0.89,2.16c-1.9,4.6-4.6,8.86-8.01,12.67c-3.4,3.8-7.44,7.08-12.01,9.75
			c-4.54,2.66-9.65,4.8-15.19,6.36C159.78,449.63,153.88,450.43,147.8,450.43z"/>
		<path class="st3" d="M219.24,448.15V325.02h24.28v123.13H219.24z M219.24,306.94v-29.29h24.28v29.29H219.24z"/>
		<path class="st3" d="M354.75,448.15v-68.62c0-12.26-1.83-21.22-5.45-26.61c-3.48-5.19-8.68-7.72-15.89-7.72
			c-3.82,0-7.7,0.76-11.53,2.25c-3.9,1.52-7.64,3.61-11.11,6.21c-3.45,2.59-6.52,5.73-9.12,9.34c-2.52,3.51-4.46,7.41-5.75,11.6
			v73.55h-24.28V325.02h22.46v20.55c4.51-5.93,10.28-10.9,17.22-14.81c9.16-5.17,19.28-7.79,30.08-7.79c7.16,0,13.25,1.35,18.1,4.02
			c4.86,2.67,8.8,6.45,11.72,11.23c2.85,4.68,4.9,10.24,6.08,16.54c1.16,6.17,1.74,12.97,1.74,20.21v73.18H354.75z"/>
		<path class="st3" d="M460.73,450.43c-9.21,0-17.77-1.71-25.45-5.08c-7.67-3.36-14.34-8.01-19.82-13.81
			c-5.47-5.78-9.79-12.64-12.85-20.38c-3.04-7.73-4.59-16-4.59-24.58c0-8.58,1.54-16.81,4.59-24.47
			c3.05-7.66,7.41-14.48,12.97-20.27c5.55-5.79,12.26-10.43,19.92-13.8c7.68-3.37,16.24-5.08,25.45-5.08
			c9.21,0,17.74,1.75,25.36,5.2c7.58,3.44,14.13,8.09,19.47,13.81c5.33,5.72,9.49,12.47,12.39,20.05
			c2.89,7.58,4.35,15.53,4.35,23.64c0,1.68-0.04,3.26-0.12,4.67c-0.08,1.48-0.21,2.61-0.38,3.48l-0.34,1.71h-98.02
			c0.58,4.76,1.82,9.18,3.68,13.15c2.15,4.6,4.99,8.6,8.43,11.9c3.45,3.3,7.41,5.92,11.78,7.78c4.34,1.85,9.01,2.79,13.86,2.79
			c3.44,0,6.85-0.47,10.13-1.4c3.32-0.94,6.47-2.22,9.35-3.8c2.83-1.56,5.39-3.5,7.59-5.77c2.15-2.22,3.8-4.74,4.91-7.51l0.7-1.76
			l21.52,5.95l-1.01,2.25c-2.06,4.6-4.91,8.85-8.47,12.65c-3.54,3.77-7.68,7.08-12.31,9.83c-4.62,2.74-9.81,4.92-15.43,6.48
			C472.75,449.63,466.81,450.43,460.73,450.43z M499.14,376.49c-0.6-4.47-1.86-8.68-3.76-12.55c-2.23-4.53-5.07-8.42-8.43-11.57
			c-3.36-3.14-7.32-5.64-11.76-7.44c-4.44-1.79-9.23-2.69-14.24-2.69c-5.01,0-9.81,0.91-14.24,2.69c-4.44,1.79-8.39,4.33-11.74,7.54
			c-3.37,3.22-6.12,7.11-8.2,11.55c-1.78,3.81-2.97,7.99-3.55,12.47H499.14z"/>
		<path class="st3" d="M573.24,450.43c-5.86,0-11.4-1.01-16.49-2.99c-5.09-1.99-9.57-4.78-13.32-8.29
			c-3.75-3.51-6.75-7.68-8.9-12.39c-2.17-4.73-3.27-9.97-3.27-15.57c0-5.8,1.31-11.16,3.9-15.93c2.57-4.75,6.27-8.86,11-12.22
			c4.65-3.31,10.22-5.94,16.57-7.82c6.32-1.87,13.3-2.82,20.76-2.82c5.86,0,11.88,0.55,17.91,1.63c4.83,0.87,9.26,2,13.22,3.37
			v-6.52c0-9.09-2.55-16.29-7.59-21.4c-5.03-5.1-12.34-7.68-21.72-7.68c-11.49,0-23.8,4.54-36.59,13.51l-2,1.4l-8.56-16.83
			l1.56-1.05c15.62-10.52,31.57-15.85,47.42-15.85c16.13,0,28.92,4.41,38.02,13.11c9.12,8.73,13.75,21.12,13.75,36.83v48.51
			c0,4.41,2.08,5.09,4.33,5.17l2.05,0.07v21.2l-1.82,0.26c-2.18,0.31-3.92,0.54-5.3,0.69c-1.47,0.16-3,0.24-4.56,0.24
			c-4.52,0-8.2-1.4-10.95-4.15c-2.68-2.67-4.3-5.95-4.81-9.75l-0.01-0.08l-0.17-3.09c-4.89,5.35-10.74,9.6-17.45,12.68
			C591.83,448.48,582.76,450.43,573.24,450.43z M586.45,388.7c-9.54,0-17.38,2.02-23.3,6.01c-5.73,3.87-8.52,8.73-8.52,14.87
			c0,3.03,0.59,5.88,1.75,8.47c1.16,2.6,2.83,4.89,4.95,6.81c2.14,1.94,4.72,3.49,7.65,4.6c2.93,1.12,6.12,1.68,9.5,1.68
			c6.81,0,13.24-1.28,19.09-3.81c5.77-2.49,10.18-5.82,13.13-9.89l0.1-0.14l0.12-0.12c2.49-2.49,3.71-4.91,3.71-7.38v-16.08
			C605.59,390.4,596.12,388.7,586.45,388.7z"/>
		<path class="st3" d="M666.77,496.66V325.02h22v17.94c4.22-5.14,9.29-9.49,15.13-12.97c7.82-4.66,16.57-7.02,26.02-7.02
			c8.48,0,16.38,1.76,23.48,5.23c7.06,3.45,13.25,8.18,18.43,14.05c5.15,5.85,9.23,12.7,12.12,20.35
			c2.89,7.65,4.35,15.72,4.35,23.98c0,8.7-1.34,17.01-3.99,24.72c-2.66,7.73-6.47,14.55-11.32,20.27
			c-4.87,5.73-10.77,10.36-17.52,13.73c-6.8,3.4-14.4,5.12-22.58,5.12c-10.24,0-19.4-2.57-27.23-7.63
			c-5.72-3.7-10.61-8.17-14.61-13.34v67.2H666.77z M691.05,402.55c1.57,3.63,3.57,7.05,5.95,10.2c2.45,3.25,5.3,6.1,8.46,8.47
			c3.17,2.38,6.59,4.27,10.19,5.64c3.53,1.35,7.26,2.03,11.09,2.03c5.55,0,10.62-1.18,15.07-3.52c4.51-2.36,8.43-5.55,11.64-9.48
			c3.24-3.96,5.76-8.53,7.49-13.58c1.74-5.07,2.62-10.35,2.62-15.71c0-5.62-1.02-11.07-3.04-16.19c-2.03-5.13-4.8-9.66-8.25-13.48
			c-3.44-3.79-7.55-6.85-12.21-9.08c-4.63-2.2-9.72-3.32-15.14-3.32c-3.37,0-6.92,0.68-10.54,2.03c-3.7,1.38-7.22,3.21-10.47,5.45
			c-3.22,2.22-6.05,4.9-8.4,7.97c-2.25,2.94-3.75,6.06-4.46,9.3V402.55z"/>
		<path class="st3" d="M808.66,496.66V325.02h22v17.94c4.22-5.14,9.29-9.49,15.13-12.97c7.82-4.66,16.57-7.02,26.03-7.02
			c8.48,0,16.38,1.76,23.48,5.23c7.05,3.45,13.25,8.18,18.42,14.05c5.15,5.85,9.23,12.7,12.12,20.35
			c2.89,7.65,4.35,15.72,4.35,23.98c0,8.69-1.34,17.01-3.99,24.72c-2.66,7.73-6.47,14.55-11.32,20.27
			c-4.87,5.73-10.77,10.35-17.52,13.73c-6.8,3.4-14.4,5.12-22.58,5.12c-10.24,0-19.4-2.57-27.23-7.63
			c-5.72-3.7-10.61-8.17-14.61-13.34v67.2H808.66z M832.94,402.55c1.57,3.62,3.57,7.05,5.95,10.2c2.45,3.25,5.3,6.09,8.46,8.47
			c3.17,2.38,6.59,4.27,10.19,5.64c3.53,1.35,7.26,2.03,11.09,2.03c5.55,0,10.62-1.18,15.07-3.52c4.51-2.36,8.43-5.55,11.64-9.48
			c3.24-3.96,5.76-8.53,7.49-13.58c1.74-5.07,2.62-10.35,2.62-15.71c0-5.62-1.02-11.07-3.04-16.19c-2.02-5.13-4.8-9.66-8.25-13.47
			c-3.44-3.79-7.55-6.85-12.21-9.08c-4.63-2.2-9.72-3.32-15.14-3.32c-3.37,0-6.91,0.68-10.54,2.03c-3.69,1.38-7.22,3.21-10.47,5.45
			c-3.22,2.22-6.05,4.9-8.4,7.97c-2.25,2.94-3.75,6.06-4.46,9.3V402.55z"/>
	</g>
</g>
<g id="Icono">
	<g>
		<path class="st2" d="M366.58,206.42v393.02l21.37,35.31l26.02,6.5l50.17-9.29l11.58-3.17l56.08-34.76l279.21-142.01l23.54-38.4
			c0,0-4.34-34.07-4.34-35.93s-34.07-25.4-34.07-25.4L449.89,158.41l-56.37,3.1l-22.92,27.87L366.58,206.42z"/>
		<g>
			<path class="st3" d="M628.01,377.45v43.19h-70.78v76.78h-47.99v-76.78h-70.78v-43.19h70.78v-76.78h47.99v76.78H628.01z"/>
			<g>
				<g>
					<path class="st3" d="M819.2,338.83l-352.85-193c-25.53-13.95-56.39-14.53-82.56-1.55c-26.17,12.97-41.79,36.6-41.79,63.2
						v384.24c0,40.22,36.52,73.12,81.41,73.33c0.12,0,0.25,0,0.37,0c14.03,0,28.65-3.9,42.3-11.29
						c10.98-5.95,14.45-18.67,7.75-28.41c-6.7-9.75-21.04-12.83-32.02-6.88c-6.39,3.46-12.62,5.24-18.15,5.24
						c-16.94-0.08-35.07-12.96-35.07-31.99V207.48c0-11.41,6.7-21.54,17.93-27.11c11.23-5.57,24.46-5.32,35.4,0.66l352.85,193
						c10.61,5.79,16.67,15.45,16.65,26.51c-0.03,11.05-6.14,20.69-16.8,26.46L539.5,565.6c-10.97,5.96-14.42,18.69-7.7,28.42
						c6.72,9.74,21.06,12.8,32.03,6.84l255.08-138.59c24.42-13.22,39.04-36.27,39.1-61.66C858.06,375.23,843.55,352.13,819.2,338.83
						z"/>
				</g>
			</g>
		</g>
	</g>
</g>
</svg>
