<?xml version="1.0" encoding="utf-8"?>
<!-- Generator: Adobe Illustrator 23.0.5, SVG Export Plug-In . SVG Version: 6.00 Build 0)  -->
<svg version="1.1" id="Capa_1" xmlns="http://www.w3.org/2000/svg" xmlns:xlink="http://www.w3.org/1999/xlink" x="0px" y="0px"
	 viewBox="0 0 1200 800" style="enable-background:new 0 0 1200 800;" xml:space="preserve">
<style type="text/css">
	.st0{display:none;}
	.st1{display:inline;}
	.st2{fill:#CFDFFF;}
	.st3{fill:#120D26;}
	.st4{fill:#FFFFFF;}
</style>
<g id="Logotipo" class="st0">
	<g class="st1">
		<path class="st2" d="M958.3,326.2V449l6.7,11l8.1,2l15.7-2.9l3.6-1l17.5-10.9l87.2-44.4l7.3-12c0,0-1.3-10.6-1.3-11.2
			s-10.6-7.9-10.6-7.9l-108.2-60.6l-17.6,1l-7.2,8.7L958.3,326.2z"/>
		<g>
			<path class="st3" d="M1040,379.7v13.5h-22.1v24h-15v-24h-22.1v-13.5h22.1v-24h15v24H1040z"/>
			<g>
				<g>
					<path class="st3" d="M1099.7,367.6l-110.2-60.3c-8-4.4-17.6-4.5-25.8-0.5s-13,11.4-13,19.7v120c0,12.6,11.4,22.8,25.4,22.9h0.1
						c4.4,0,9-1.2,13.2-3.5c3.4-1.9,4.5-5.8,2.4-8.9c-2.1-3-6.6-4-10-2.1c-2,1.1-3.9,1.6-5.7,1.6c-5.3,0-11-4-11-10v-120
						c0-3.6,2.1-6.7,5.6-8.5c3.5-1.7,7.6-1.7,11.1,0.2l110.2,60.3c3.3,1.8,5.2,4.8,5.2,8.3s-1.9,6.5-5.3,8.3l-79.7,43.3
						c-3.4,1.9-4.5,5.8-2.4,8.9c2.1,3,6.6,4,10,2.1l79.7-43.3c7.6-4.1,12.2-11.3,12.2-19.3C1111.8,379,1107.3,371.8,1099.7,367.6z"
						/>
				</g>
			</g>
		</g>
	</g>
	<g class="st1">
		<path class="st3" d="M147.8,450.4c-9.2,0-17.8-1.8-25.5-5.2c-7.7-3.4-14.3-8.1-19.8-13.9s-9.8-12.6-12.8-20.4
			c-3-7.7-4.6-16-4.6-24.6s1.5-16.8,4.5-24.5s7.3-14.5,12.8-20.2s12.1-10.3,19.7-13.7c7.6-3.4,16.2-5.1,25.6-5.1
			c12.2,0,22.9,2.8,31.7,8.2s15.7,12.8,20.3,21.9l1.1,2.2l-23.6,7.4l-0.8-1.5c-2.8-5.2-6.9-9.4-11.9-12.3
			c-5.1-2.9-10.9-4.4-17.2-4.4c-5.1,0-10.1,1-14.6,3.1c-4.6,2.1-8.5,5-11.8,8.7s-6,8.2-7.9,13.3s-2.9,10.7-2.9,16.8
			c0,5.9,1,11.6,3,16.8c2,5.2,4.8,9.8,8.2,13.6c3.4,3.8,7.3,6.8,11.8,8.9s9.3,3.2,14.5,3.2c3.3,0,6.6-0.5,9.8-1.4s6.2-2.2,8.8-3.8
			c2.6-1.6,5-3.4,7-5.5c1.9-2,3.3-4.1,4.1-6.4l0.7-1.9l23.8,7.2l-0.9,2.2c-1.9,4.6-4.6,8.9-8,12.7c-3.4,3.8-7.4,7.1-12,9.8
			c-4.5,2.7-9.6,4.8-15.2,6.4C159.8,449.6,153.9,450.4,147.8,450.4z"/>
		<path class="st3" d="M219.2,448.1V325h24.3v123.1H219.2z M219.2,306.9v-29.3h24.3v29.3H219.2z"/>
		<path class="st3" d="M354.8,448.1v-68.6c0-12.3-1.8-21.2-5.5-26.6c-3.5-5.2-8.7-7.7-15.9-7.7c-3.8,0-7.7,0.8-11.5,2.3
			c-3.9,1.5-7.6,3.6-11.1,6.2s-6.5,5.7-9.1,9.3c-2.5,3.5-4.5,7.4-5.8,11.6v73.5h-24.3V325h22.5v20.5c4.5-5.9,10.3-10.9,17.2-14.8
			c9.2-5.2,19.3-7.8,30.1-7.8c7.2,0,13.3,1.4,18.1,4c4.9,2.7,8.8,6.5,11.7,11.2c2.9,4.7,4.9,10.2,6.1,16.5c1.2,6.2,1.7,13,1.7,20.2
			V448L354.8,448.1L354.8,448.1z"/>
		<path class="st3" d="M460.7,450.4c-9.2,0-17.8-1.7-25.5-5.1s-14.3-8-19.8-13.8s-9.8-12.6-12.9-20.4c-3-7.7-4.6-16-4.6-24.6
			s1.5-16.8,4.6-24.5s7.4-14.5,13-20.3c5.5-5.8,12.3-10.4,19.9-13.8c7.7-3.4,16.2-5.1,25.5-5.1c9.2,0,17.7,1.8,25.4,5.2
			c7.6,3.4,14.1,8.1,19.5,13.8c5.3,5.7,9.5,12.5,12.4,20c2.9,7.6,4.3,15.5,4.3,23.6c0,1.7,0,3.3-0.1,4.7c-0.1,1.5-0.2,2.6-0.4,3.5
			l-0.3,1.7h-98c0.6,4.8,1.8,9.2,3.7,13.1c2.1,4.6,5,8.6,8.4,11.9c3.5,3.3,7.4,5.9,11.8,7.8c4.3,1.9,9,2.8,13.9,2.8
			c3.4,0,6.9-0.5,10.1-1.4c3.3-0.9,6.5-2.2,9.4-3.8c2.8-1.6,5.4-3.5,7.6-5.8c2.1-2.2,3.8-4.7,4.9-7.5l0.7-1.8l21.5,6l-1,2.3
			c-2.1,4.6-4.9,8.9-8.5,12.6c-3.5,3.8-7.7,7.1-12.3,9.8c-4.6,2.7-9.8,4.9-15.4,6.5C472.8,449.6,466.8,450.4,460.7,450.4z
			 M499.1,376.5c-0.6-4.5-1.9-8.7-3.8-12.5c-2.2-4.5-5.1-8.4-8.4-11.6c-3.4-3.1-7.3-5.6-11.8-7.4c-4.4-1.8-9.2-2.7-14.2-2.7
			s-9.8,0.9-14.2,2.7c-4.4,1.8-8.4,4.3-11.7,7.5c-3.4,3.2-6.1,7.1-8.2,11.5c-1.8,3.8-3,8-3.5,12.5H499.1z"/>
		<path class="st3" d="M573.2,450.4c-5.9,0-11.4-1-16.5-3s-9.6-4.8-13.3-8.3s-6.8-7.7-8.9-12.4c-2.2-4.7-3.3-10-3.3-15.6
			c0-5.8,1.3-11.2,3.9-15.9c2.6-4.8,6.3-8.9,11-12.2c4.7-3.3,10.2-5.9,16.6-7.8c6.3-1.9,13.3-2.8,20.8-2.8c5.9,0,11.9,0.5,17.9,1.6
			c4.8,0.9,9.3,2,13.2,3.4v-6.5c0-9.1-2.5-16.3-7.6-21.4c-5-5.1-12.3-7.7-21.7-7.7c-11.5,0-23.8,4.5-36.6,13.5l-2,1.4l-8.6-16.8
			l1.6-1c15.6-10.5,31.6-15.9,47.4-15.9c16.1,0,28.9,4.4,38,13.1s13.8,21.1,13.8,36.8v48.5c0,4.4,2.1,5.1,4.3,5.2l2,0.1v21.2
			l-1.8,0.3c-2.2,0.3-3.9,0.5-5.3,0.7c-1.5,0.2-3,0.2-4.6,0.2c-4.5,0-8.2-1.4-11-4.1c-2.7-2.7-4.3-6-4.8-9.8v-0.1l-0.2-3.1
			c-4.9,5.4-10.7,9.6-17.5,12.7C591.8,448.5,582.8,450.4,573.2,450.4z M586.5,388.7c-9.5,0-17.4,2-23.3,6c-5.7,3.9-8.5,8.7-8.5,14.9
			c0,3,0.6,5.9,1.8,8.5s2.8,4.9,5,6.8c2.1,1.9,4.7,3.5,7.7,4.6c2.9,1.1,6.1,1.7,9.5,1.7c6.8,0,13.2-1.3,19.1-3.8
			c5.8-2.5,10.2-5.8,13.1-9.9l0.1-0.1l0.1-0.1c2.5-2.5,3.7-4.9,3.7-7.4v-16.1C605.6,390.4,596.1,388.7,586.5,388.7z"/>
		<path class="st3" d="M666.8,496.7V325h22v18c4.2-5.1,9.3-9.5,15.1-13c7.8-4.7,16.6-7,26-7c8.5,0,16.4,1.8,23.5,5.2
			c7.1,3.5,13.3,8.2,18.4,14c5.2,5.9,9.2,12.7,12.1,20.4s4.3,15.7,4.3,24c0,8.7-1.3,17-4,24.7s-6.5,14.5-11.3,20.3
			c-4.9,5.7-10.8,10.4-17.5,13.7c-6.8,3.4-14.4,5.1-22.6,5.1c-10.2,0-19.4-2.6-27.2-7.6c-5.7-3.7-10.6-8.2-14.6-13.3v67.2H666.8
			L666.8,496.7z M691,402.5c1.6,3.6,3.6,7,6,10.2c2.5,3.3,5.3,6.1,8.5,8.5s6.6,4.3,10.2,5.6c3.5,1.4,7.3,2,11.1,2
			c5.5,0,10.6-1.2,15.1-3.5c4.5-2.4,8.4-5.5,11.6-9.5c3.2-4,5.8-8.5,7.5-13.6s2.6-10.4,2.6-15.7c0-5.6-1-11.1-3-16.2
			s-4.8-9.7-8.3-13.5c-3.4-3.8-7.5-6.9-12.2-9.1c-4.6-2.2-9.7-3.3-15.1-3.3c-3.4,0-6.9,0.7-10.5,2c-3.7,1.4-7.2,3.2-10.5,5.5
			c-3.2,2.2-6,4.9-8.4,8c-2.3,2.9-3.8,6.1-4.5,9.3L691,402.5L691,402.5z"/>
		<path class="st3" d="M808.7,496.7V325h22v18c4.2-5.1,9.3-9.5,15.1-13c7.8-4.7,16.6-7,26-7c8.5,0,16.4,1.8,23.5,5.2
			c7,3.5,13.3,8.2,18.4,14c5.2,5.9,9.2,12.7,12.1,20.4s4.3,15.7,4.3,24c0,8.7-1.3,17-4,24.7s-6.5,14.5-11.3,20.3
			c-4.9,5.7-10.8,10.4-17.5,13.7c-6.8,3.4-14.4,5.1-22.6,5.1c-10.2,0-19.4-2.6-27.2-7.6c-5.7-3.7-10.6-8.2-14.6-13.3v67.2H808.7
			L808.7,496.7z M832.9,402.5c1.6,3.6,3.6,7,6,10.2c2.5,3.3,5.3,6.1,8.5,8.5s6.6,4.3,10.2,5.6c3.5,1.4,7.3,2,11.1,2
			c5.5,0,10.6-1.2,15.1-3.5c4.5-2.4,8.4-5.5,11.6-9.5c3.2-4,5.8-8.5,7.5-13.6s2.6-10.4,2.6-15.7c0-5.6-1-11.1-3-16.2
			s-4.8-9.7-8.3-13.5c-3.4-3.8-7.5-6.9-12.2-9.1c-4.6-2.2-9.7-3.3-15.1-3.3c-3.4,0-6.9,0.7-10.5,2c-3.7,1.4-7.2,3.2-10.5,5.5
			c-3.2,2.2-6,4.9-8.4,8c-2.3,2.9-3.8,6.1-4.5,9.3L832.9,402.5L832.9,402.5z"/>
	</g>
</g>
<g id="Icono">
	<g>
		<path class="st3" d="M366.6,206.4v393l21.4,35.3l26,6.5l50.2-9.3l11.6-3.2l56.1-34.8L811,452l23.5-38.4c0,0-4.3-34.1-4.3-35.9
			s-34.1-25.4-34.1-25.4L449.9,158.4l-56.4,3.1l-22.9,27.9L366.6,206.4z"/>
		<g>
			<path class="st4" d="M628,377.5v43.2h-70.8v76.8h-48v-76.8h-70.8v-43.2h70.8v-76.8h48v76.8H628z"/>
			<g>
				<g>
					<path class="st4" d="M819.2,338.8l-352.9-193c-25.5-13.9-56.4-14.5-82.6-1.6c-26.2,13-41.8,36.6-41.8,63.2v384.2
						c0,40.2,36.5,73.1,81.4,73.3c0.1,0,0.3,0,0.4,0c14,0,28.6-3.9,42.3-11.3c11-6,14.5-18.7,7.8-28.4c-6.7-9.8-21-12.8-32-6.9
						c-6.4,3.5-12.6,5.2-18.1,5.2c-16.9-0.1-35.1-13-35.1-32v-384c0-11.4,6.7-21.5,17.9-27.1c11.2-5.6,24.5-5.3,35.4,0.7l352.9,193
						c10.6,5.8,16.7,15.5,16.7,26.5s-6.1,20.7-16.8,26.5L539.5,565.6c-11,6-14.4,18.7-7.7,28.4s21.1,12.8,32,6.8l255.1-138.6
						c24.4-13.2,39-36.3,39.1-61.7C858.1,375.2,843.5,352.1,819.2,338.8z"/>
				</g>
			</g>
		</g>
	</g>
</g>
</svg>
